<?xml version="1.0" encoding="UTF-8"?><svg id="a" xmlns="http://www.w3.org/2000/svg" viewBox="0 0 580.27 580.27"><defs><style>.b{fill:#fff;}</style></defs><path class="b" d="M290.13,0c160.24,0,290.13,129.9,290.13,290.13s-129.9,290.13-290.13,290.13S0,450.37,0,290.13,129.9,0,290.13,0h0Zm0,51.2c-131.96,0-238.93,106.98-238.93,238.93s106.98,238.93,238.93,238.93,238.93-106.97,238.93-238.93S422.09,51.2,290.13,51.2h0Zm31.73,341.34v51.2h-47.96v-51.2h47.96Zm-2.83-253.41c30.98,6.25,67.82,35.79,67.82,78.76s-35.11,59.25-47.69,67.29c-11.6,7.43-16.53,15.91-17.22,24.95l-.09,2.25v46.01h-47.97v-63.47c0-15.05,4.83-25.6,18.26-34.92l3.02-2,26.95-17.92c17.18-11.57,16.94-34.8,6.31-45.05-11.56-10.14-27.26-14.16-42.27-10.84-29.9,5.87-33.35,26.96-33.55,47.44v11.59h-47.8c0-39.87,4.57-57.94,25.84-80.78,23.82-25.52,57.39-29.61,88.39-23.33h0Zm0,0"/></svg>